<svg xmlns="http://www.w3.org/2000/svg" version="1.1" xmlns:xlink="http://www.w3.org/1999/xlink" xmlns:svgjs="http://svgjs.dev/svgjs" width="1000" height="255" viewBox="0 0 1000 255"><g transform="matrix(1,0,0,1,-0.6060534210781725,-0.5429774814091246)"><svg viewBox="0 0 396 101" data-background-color="#ffffff" preserveAspectRatio="xMidYMid meet" height="255" width="1000" xmlns="http://www.w3.org/2000/svg" xmlns:xlink="http://www.w3.org/1999/xlink"><g id="tight-bounds" transform="matrix(1,0,0,1,0.23999715474695904,0.21506166910714342)"><svg viewBox="0 0 395.52 100.56987615162127" height="100.56987615162127" width="395.52"><g><svg viewBox="0 0 578.6903230374367 147.14505996666847" height="100.56987615162127" width="395.52"><g><rect width="5.777349257290311" height="127.76705641100011" x="162.26902284483145" y="9.689001777834179" fill="#ee3e38" opacity="1" stroke-width="0" stroke="transparent" fill-opacity="1" class="rect-o-0" data-fill-palette-color="primary" rx="1%" id="o-0" data-palette-color="#ee3e38"></rect></g><g transform="matrix(1,0,0,1,183.17032303743673,20.336256478750855)"><svg viewBox="0 0 395.52 106.47254700916676" height="106.47254700916676" width="395.52"><g id="textblocktransform"><svg viewBox="0 0 395.52 106.47254700916676" height="106.47254700916676" width="395.52" id="textblock"><g><svg viewBox="0 0 395.52 64.06390711175617" height="64.06390711175617" width="395.52"><g transform="matrix(1,0,0,1,0,0)"><svg width="395.52" viewBox="2.640000104904175 -31.610000610351562 197.97999572753906 32.06999969482422" height="64.06390711175617" data-palette-color="#ee3e38"><path d="M7.13-23.45L7.13-23.45Q7.13-22.24 7.93-21.18 8.74-20.11 10-19.43 11.26-18.74 12.87-18.22 14.48-17.7 16.26-17.13 18.05-16.55 19.77-15.86 21.49-15.17 22.76-14.14L22.76-14.14Q25.52-11.9 25.52-8.05L25.52-8.05Q25.52-6.21 24.66-4.57 23.79-2.93 22.24-1.84L22.24-1.84Q19.08 0.46 13.79 0.46L13.79 0.46Q8.79 0.46 5-2.07L5-2.07Q2.64-3.56 2.64-4.6L2.64-4.6Q2.64-5.52 3.56-6.09L3.56-6.09Q3.79-6.32 4.14-6.32 4.48-6.32 4.89-6.03 5.29-5.75 5.83-5.34 6.38-4.94 7.21-4.45 8.05-3.97 8.97-3.56L8.97-3.56Q11.26-2.64 13.45-2.7 15.63-2.76 16.95-3.05 18.28-3.33 19.31-4.02L19.31-4.02Q21.49-5.52 21.55-7.82L21.55-7.82Q21.55-10.69 18.74-12.24L18.74-12.24Q17.47-12.93 15.89-13.48 14.31-14.02 12.56-14.54 10.8-15.06 9.08-15.8 7.36-16.55 6.03-17.59L6.03-17.59Q3.22-19.83 3.22-23.33L3.22-23.33Q3.22-25.17 4.11-26.78 5-28.39 6.55-29.43L6.55-29.43Q9.54-31.55 14.02-31.61L14.02-31.61Q20.52-31.61 24.48-27.41L24.48-27.41Q24.71-27.07 24.71-26.64 24.71-26.21 24.68-25.92 24.66-25.63 24.37-25.34L24.37-25.34Q23.97-24.83 23.3-24.83 22.64-24.83 21.9-25.69L21.9-25.69Q20-27.07 18.85-27.47L18.85-27.47Q16.55-28.39 14.37-28.39L14.37-28.39Q11.55-28.39 9.54-27.24L9.54-27.24Q7.13-25.86 7.13-23.45ZM38.73-28.1L30.17-28.1Q29.31-28.1 28.91-28.62 28.5-29.14 28.5-29.74 28.5-30.34 28.91-30.86 29.31-31.38 30.17-31.38L30.17-31.38 51.15-31.38Q51.95-31.38 52.35-30.86 52.76-30.34 52.76-29.74 52.76-29.14 52.33-28.62 51.89-28.1 51.15-28.1L51.15-28.1 42.64-28.1 42.64-1.9Q42.64-0.57 41.49-0.11L41.49-0.11Q41.15 0 40.57 0 40 0 39.37-0.46 38.73-0.92 38.73-1.9L38.73-1.9 38.73-28.1ZM60.89-20.2Q60.34-17.82 60.34-15.55 60.34-13.28 60.89-10.86 61.43-8.45 62.75-6.64 64.08-4.83 66.03-3.74 67.98-2.64 70.8-2.64 73.62-2.64 75.63-3.74 77.64-4.83 78.9-6.64 80.17-8.45 80.77-10.86 81.37-13.28 81.37-15.55 81.37-17.82 80.77-20.2 80.17-22.59 78.9-24.4 77.64-26.21 75.63-27.3 73.62-28.39 70.8-28.39 67.98-28.39 66.03-27.3 64.08-26.21 62.75-24.4 61.43-22.59 60.89-20.2ZM56.03-15.63L56.03-15.63Q56.03-18.97 57.01-21.95 57.98-24.94 59.94-27.07L59.94-27.07Q63.85-31.55 70.74-31.61L70.74-31.61Q77.75-31.61 81.72-27.07L81.72-27.07Q83.62-24.94 84.56-21.95 85.51-18.97 85.51-15.63L85.51-15.63Q85.51-12.24 84.56-9.17 83.62-6.09 81.72-4.02L81.72-4.02Q77.75 0.46 70.74 0.46L70.74 0.46Q63.79 0.46 59.94-4.02L59.94-4.02Q57.98-6.21 57.01-9.22 56.03-12.24 56.03-15.63ZM92.64-1.9L92.64-29.43Q92.64-30.57 93.9-31.21L93.9-31.21Q94.25-31.38 94.65-31.38L94.65-31.38 104.02-31.38Q111.6-31.38 114.25-27.36L114.25-27.36Q115.16-25.69 115.16-23.13 115.16-20.57 113.5-18.79 111.83-17.01 108.73-16.38L108.73-16.38 108.73-16.21Q111.72-15.69 112.98-13.97L112.98-13.97Q113.96-12.53 114.22-10.11 114.48-7.7 114.65-6.32L114.65-6.32Q114.82-4.31 114.99-1.9L114.99-1.9Q114.99-0.92 114.39-0.46 113.79 0 113.04 0 112.29 0 111.72-0.43 111.14-0.86 111.03-1.72L111.03-1.72Q110.8-4.37 110.62-6.41 110.45-8.45 110.22-9.86 109.99-11.26 109.59-12.18 109.19-13.1 108.5-13.62L108.5-13.62Q107.35-14.48 103.96-14.6L103.96-14.6 96.54-14.6 96.54-1.9Q96.54-0.52 95.34-0.11L95.34-0.11Q94.99 0 94.45 0 93.9 0 93.27-0.46 92.64-0.92 92.64-1.9L92.64-1.9ZM96.54-17.59L102.29-17.59Q107.75-17.59 109.65-19.31L109.65-19.31Q111.03-20.52 111.14-22.93L111.14-22.93Q111.14-26.32 108.61-27.41L108.61-27.41Q107.23-28.1 105.85-28.19 104.48-28.28 103.67-28.28L103.67-28.28 96.54-28.28 96.54-17.59ZM141.83 0L124.93 0Q124.24 0 123.78-0.46L123.78-0.46Q122.98-1.15 122.98-1.9L122.98-1.9 122.98-29.43Q122.98-30.52 124.13-31.15L124.13-31.15Q124.47-31.26 124.82-31.38L124.82-31.38 141.2-31.38Q142.06-31.38 142.46-30.86 142.86-30.34 142.86-29.74 142.86-29.14 142.4-28.62 141.94-28.1 141.2-28.1L141.2-28.1 126.77-28.1 126.77-17.7 140.51-17.7Q141.37-17.7 141.77-17.21 142.17-16.72 142.17-16.09L142.17-16.09Q142.17-15.52 141.71-15.06 141.25-14.6 140.51-14.6L140.51-14.6 126.77-14.6 126.77-3.22 141.83-3.22Q142.63-3.22 143.04-2.7 143.44-2.18 143.44-1.55 143.44-0.92 143.01-0.46 142.58 0 141.83 0L141.83 0ZM164.93-27.93L175.5-2.41Q175.56-2.07 175.56-1.72 175.56-1.38 175.39-1.03 175.22-0.69 174.93-0.52L174.93-0.52Q174.36 0 173.67 0L173.67 0Q172.29 0 171.83-1.21L171.83-1.21 169.01-8.16 153.49-8.16 150.73-1.21Q150.33 0 149.13 0 147.92 0 147.29-1.03L147.29-1.03Q147.11-1.38 147.11-1.67 147.11-1.95 147.29-2.41L147.29-2.41 157.69-27.93Q158.84-30.8 160.33-31.21L160.33-31.21Q160.73-31.26 161.37-31.38L161.37-31.38Q162.52-31.38 163.09-30.86L163.09-30.86Q164.01-30.17 164.93-27.93L164.93-27.93ZM161.25-28.1L154.59-11.21 167.98-11.21 161.25-28.1ZM199.01 0L182.92 0Q181.59 0 181.08-1.15L181.08-1.15Q180.9-1.49 180.9-1.9L180.9-1.9 180.9-29.48Q180.9-30.8 182.11-31.21L182.11-31.21Q182.46-31.26 183.03-31.32 183.61-31.38 184.18-30.92 184.76-30.46 184.76-29.48L184.76-29.48 184.76-3.22 199.01-3.22Q199.87-3.22 200.24-2.73 200.62-2.24 200.62-1.64 200.62-1.03 200.21-0.52 199.81 0 199.01 0L199.01 0Z" opacity="1" transform="matrix(1,0,0,1,0,0)" fill="#ee3e38" class="wordmark-text-0" data-fill-palette-color="primary" id="text-0"></path></svg></g></svg></g><g transform="matrix(1,0,0,1,0,79.18785804707112)"><svg viewBox="0 0 232.20979199999996 27.28468896209565" height="27.28468896209565" width="232.20979199999996"><g transform="matrix(1,0,0,1,0,0)"><svg width="232.20979199999996" viewBox="1.8300000429153442 -41.33000183105469 463.9358215332031 54.51000213623047" height="27.28468896209565" data-palette-color="#ee3e38"><path d="M10.99 0.49L10.99 0.49Q9.38 0.49 8.13-0.29L8.13-0.29Q6.88 0.49 5.82 0.49 4.76 0.49 4.08 0.31 3.39 0.12 2.88-0.2L2.88-0.2Q1.83-0.83 1.83-1.78L1.83-1.78Q1.83-2.27 2.1-2.64L2.1-2.64Q2.64-2.22 3.47-2.22L3.47-2.22Q5.64-2.22 6.47-4.08L6.47-4.08 6.47-16.02Q6.47-17.11 6.01-17.7L6.01-17.7Q5.27-18.65 3.49-19.51L3.49-19.51Q5.13-20.26 5.64-20.83L5.64-20.83Q6.47-21.78 6.47-22.95L6.47-22.95 6.47-33.25Q5.64-35.13 3.47-35.13L3.47-35.13Q2.64-35.13 2.1-34.72L2.1-34.72Q1.83-35.08 1.83-35.56 1.83-36.04 2.11-36.45 2.39-36.87 2.88-37.16L2.88-37.16Q4-37.84 5.46-37.84 6.91-37.84 8.13-37.04L8.13-37.04Q9.4-37.84 10.96-37.84L10.96-37.84Q12.67-37.84 13.94-36.94L13.94-36.94Q16.65-38.09 19.34-38.09 22.02-38.09 24.23-37.56 26.44-37.04 28.22-36.08L28.22-36.08Q32.1-34.03 33.06-30.76L33.06-30.76Q33.59-28.96 35.38-28.08L35.38-28.08Q33.4-26.71 32.93-24.95L32.93-24.95Q31.91-21.09 28.78-19.92L28.78-19.92Q33.37-18.65 34.77-13.92L34.77-13.92Q35.25-12.23 37.08-11.16L37.08-11.16Q35.21-10.11 34.57-7.98 33.94-5.86 32.34-4.16 30.74-2.47 28.61-1.37L28.61-1.37Q24.51 0.73 19.36 0.73L19.36 0.73Q16.28 0.73 13.87-0.37L13.87-0.37Q12.6 0.49 10.99 0.49ZM15.45-21.09L20.02-21.09Q22.17-21.09 23.07-22.12L23.07-22.12Q24.02-23.17 24.02-25.73L24.02-25.73 24.02-31.37Q24.02-32.86 22.46-33.89L22.46-33.89Q21.09-34.79 19.93-34.79 18.77-34.79 18.03-34.51 17.29-34.23 16.7-33.74L16.7-33.74Q15.45-32.71 15.45-31.27L15.45-31.27 15.45-21.09ZM25.42-34.23L25.42-34.23Q26.25-32.37 26.25-28.81L26.25-28.81Q26.25-23.56 25.56-22L25.56-22Q26.59-22.19 27.29-23.97L27.29-23.97Q27.56-24.63 27.7-25.37 27.83-26.1 27.92-26.5 28-26.9 28.17-27.2L28.17-27.2Q28.54-27.81 29.49-28.13L29.49-28.13Q28.52-28.44 28.27-28.81L28.27-28.81Q27.95-29.22 27.76-30.32 27.56-31.42 27.29-32.12 27.03-32.81 26.71-33.25L26.71-33.25Q26.1-34.13 25.42-34.23ZM8.81-9.64L8.81-6.47Q10.03-6.93 10.16-9.67L10.16-9.67Q10.3-12.4 10.3-17.24 10.3-22.07 10.29-23.67 10.28-25.27 10.25-26.25L10.25-26.25Q10.18-29.13 9.7-29.72 9.23-30.32 8.81-30.52L8.81-30.52Q8.81-22.02 8.52-20.85L8.52-20.85Q8.18-19.87 6.86-19.46L6.86-19.46Q8.33-18.95 8.52-18.21L8.52-18.21Q8.81-17.04 8.81-9.64L8.81-9.64ZM15.45-18.02L15.45-6.37Q15.45-4.66 16.75-3.56L16.75-3.56Q17.99-2.54 19.73-2.54L19.73-2.54Q21.41-2.54 22.56-3.27L22.56-3.27Q24.76-4.71 24.76-6.57L24.76-6.57 24.76-13.72Q24.76-15.94 23.32-17.07L23.32-17.07Q22.09-18.02 20.12-18.02L20.12-18.02 15.45-18.02ZM26.39-17.26L26.39-17.26Q26.98-15.94 26.98-11.16L26.98-11.16Q26.98-5.1 26.54-4.05L26.54-4.05Q27.05-4.15 27.59-5.3 28.13-6.45 28.34-7.67 28.56-8.89 28.65-9.33 28.74-9.77 28.91-10.11L28.91-10.11Q29.3-10.84 30.22-11.16L30.22-11.16Q28.76-11.62 28.5-13.01 28.25-14.4 28-15.16 27.76-15.92 27.49-16.36L27.49-16.36Q27.03-17.14 26.39-17.26ZM44.89-2.73Q43.36-4.3 42.47-6.45 41.57-8.59 41.38-10.13 41.18-11.67 41.05-12.11 40.92-12.55 40.6-12.94L40.6-12.94Q39.96-13.75 38.28-14.58L38.28-14.58Q40.4-15.53 40.99-17.63L40.99-17.63Q41.16-18.21 41.26-18.8L41.26-18.8Q41.89-23.17 45.48-26.11 49.07-29.05 53.85-29.05L53.85-29.05Q58.84-29.05 62.42-26.07L62.42-26.07Q65.92-23.17 66.55-18.8L66.55-18.8Q66.77-17.26 67.21-16.55L67.21-16.55Q68.04-15.26 69.53-14.58L69.53-14.58Q67.87-13.77 67.38-13.16L67.38-13.16Q66.72-12.3 66.55-11.13L66.55-11.13Q65.77-5.37 62.55-2.38 59.32 0.61 53.95 0.61L53.95 0.61Q48.19 0.61 44.89-2.73L44.89-2.73ZM58.05-19.51Q58.05-25.61 53.9-25.61 49.75-25.61 49.75-19.51L49.75-19.51 49.75-8.69Q49.75-2.83 53.88-2.83L53.88-2.83Q58.05-2.83 58.05-8.69L58.05-8.69 58.05-19.51ZM60.4-22.73L60.4-6.47Q61.62-6.93 61.74-9.67L61.74-9.67Q61.89-12.4 61.89-13.73 61.89-15.06 61.87-15.95 61.86-16.85 61.84-17.8L61.84-17.8Q61.74-21.36 61.28-21.95 60.81-22.53 60.4-22.73L60.4-22.73ZM45.77-6.47L45.77-6.47Q46.12-6.74 46.12-7.08L46.12-7.08Q46.12-7.62 45.9-8.45L45.9-8.45Q44.89-12.28 44.89-13.78 44.89-15.28 44.99-16.13 45.09-16.97 45.24-17.82L45.24-17.82Q45.55-19.48 45.9-20.75L45.9-20.75Q46.12-21.58 46.12-21.88L46.12-21.88Q46.12-22.46 45.77-22.73L45.77-22.73Q44.75-21.51 44.21-19.46 43.67-17.41 43.33-15.84L43.33-15.84Q43.21-15.19 41.89-14.58L41.89-14.58Q43.21-13.96 43.33-13.35L43.33-13.35Q44.24-9.23 44.82-8.11 45.41-6.98 45.77-6.47ZM78.46-2.73Q76.92-4.3 76.03-6.45 75.14-8.59 74.95-10.13 74.75-11.67 74.62-12.11 74.48-12.55 74.16-12.94L74.16-12.94Q73.53-13.75 71.85-14.58L71.85-14.58Q73.97-15.53 74.56-17.63L74.56-17.63Q74.73-18.21 74.82-18.8L74.82-18.8Q75.46-23.17 79.05-26.11 82.64-29.05 87.42-29.05L87.42-29.05Q92.4-29.05 95.99-26.07L95.99-26.07Q99.48-23.17 100.12-18.8L100.12-18.8Q100.34-17.26 100.78-16.55L100.78-16.55Q101.61-15.26 103.1-14.58L103.1-14.58Q101.44-13.77 100.95-13.16L100.95-13.16Q100.29-12.3 100.12-11.13L100.12-11.13Q99.34-5.37 96.11-2.38 92.89 0.61 87.52 0.61L87.52 0.61Q81.76 0.61 78.46-2.73L78.46-2.73ZM91.62-19.51Q91.62-25.61 87.47-25.61 83.32-25.61 83.32-19.51L83.32-19.51 83.32-8.69Q83.32-2.83 87.45-2.83L87.45-2.83Q91.62-2.83 91.62-8.69L91.62-8.69 91.62-19.51ZM93.96-22.73L93.96-6.47Q95.19-6.93 95.31-9.67L95.31-9.67Q95.45-12.4 95.45-13.73 95.45-15.06 95.44-15.95 95.43-16.85 95.41-17.8L95.41-17.8Q95.31-21.36 94.84-21.95 94.38-22.53 93.96-22.73L93.96-22.73ZM79.34-6.47L79.34-6.47Q79.68-6.74 79.68-7.08L79.68-7.08Q79.68-7.62 79.46-8.45L79.46-8.45Q78.46-12.28 78.46-13.78 78.46-15.28 78.56-16.13 78.66-16.97 78.8-17.82L78.8-17.82Q79.12-19.48 79.46-20.75L79.46-20.75Q79.68-21.58 79.68-21.88L79.68-21.88Q79.68-22.46 79.34-22.73L79.34-22.73Q78.32-21.51 77.78-19.46 77.24-17.41 76.9-15.84L76.9-15.84Q76.78-15.19 75.46-14.58L75.46-14.58Q76.78-13.96 76.9-13.35L76.9-13.35Q77.8-9.23 78.39-8.11 78.97-6.98 79.34-6.47ZM122.18-3.58Q122.65-4.05 122.92-4.8 123.19-5.54 123.19-6.36 123.19-7.18 123.09-7.86L123.09-7.86Q123.26-8.23 124.02-8.44 124.77-8.64 125.02-8.64L125.02-8.64Q125.94-8.64 126.51-7.95 127.07-7.25 127.07-6.02 127.07-4.79 126.35-3.59 125.63-2.39 124.43-1.46L124.43-1.46Q121.77 0.61 118.23 0.61L118.23 0.61Q111.49 0.61 109.29-4.49L109.29-4.49Q108.49-6.37 108.49-9.2L108.49-9.2 108.49-12.18Q108.49-13.33 105.97-14.6L105.97-14.6Q108.49-16.04 108.49-18.48L108.49-18.48 108.49-21.36Q108.49-24.15 106.22-24.15L106.22-24.15Q105.39-24.15 104.85-23.73L104.85-23.73Q104.51-24.19 104.51-24.69 104.51-25.2 104.69-25.79 104.88-26.39 105.34-26.88L105.34-26.88Q106.51-28.15 108.98-27.76L108.98-27.76 108.98-28.54Q108.98-31.1 110.27-33.06L110.27-33.06Q111.42-34.81 112.31-34.81 113.2-34.81 113.69-34.2L113.69-34.2Q114.1-36.13 114.79-36.99 115.47-37.84 116.74-37.84L116.74-37.84 116.74-27.66 124.68-27.66Q124.87-27.27 124.87-26.35 124.87-25.44 124.16-24.89 123.45-24.34 122.45-24.34L122.45-24.34 116.74-24.34 116.74-7.81Q116.74-3.56 118.67-2.83L118.67-2.83Q119.23-2.64 119.88-2.64 120.52-2.64 121.12-2.87 121.72-3.1 122.18-3.58ZM110.83-8.06L110.83-6.47Q111.98-7.2 112.13-9.52L112.13-9.52Q112.22-11.18 112.24-12.11 112.25-13.04 112.26-13.61 112.27-14.18 112.27-14.5L112.27-14.5 112.27-15.48Q112.27-16.19 112.26-17.3 112.25-18.41 112.24-19.71 112.22-21.02 112.18-22.22L112.18-22.22Q112.1-25.1 111.96-25.73L111.96-25.73Q111.66-27.15 110.83-27.69L110.83-27.69 110.83-20.07Q110.83-16.67 110.72-16.48 110.61-16.28 110.54-16.02L110.54-16.02Q110.32-15.28 108.88-14.79L108.88-14.79Q110.34-14.28 110.54-13.55L110.54-13.55Q110.83-12.38 110.83-8.06L110.83-8.06ZM133.24-0.59L133.24-0.59Q131.58 1 130.04 1L130.04 1Q129.19 1 128.87 0.37L128.87 0.37Q129.43-0.2 129.43-0.76 129.43-1.32 129.26-1.61L129.26-1.61 128.95-2.17 129.34-1.44Q128.75-1.71 128.43-2.34 128.12-2.98 128.12-3.89 128.12-4.81 129.14-5.98L129.14-5.98Q128.65-6.67 128.65-7.5 128.65-8.33 128.93-8.87 129.21-9.42 129.65-9.86L129.65-9.86Q130.63-10.79 131.73-10.79L131.73-10.79Q132.46-10.79 132.78-10.28L132.78-10.28Q132.12-9.57 132.12-8.04 132.12-6.52 132.64-5.44 133.17-4.37 134.07-3.61L134.07-3.61Q135.98-2 138.76-2L138.76-2Q141.86-2 143.06-4.27L143.06-4.27Q143.4-4.96 143.4-5.65 143.4-6.35 143.08-6.9 142.76-7.45 142.25-7.96L142.25-7.96Q141.4-8.79 139.64-9.86L139.64-9.86Q137.95-11.06 135.66-11.06L135.66-11.06Q134.17-11.06 133.66-10.82L133.66-10.82Q133.97-11.55 133.97-12.28 133.97-13.01 133-13.88 132.02-14.75 131.25-15.63 130.48-16.5 130.02-17.38L130.02-17.38Q129.09-19.04 129.09-20.9 129.09-22.75 129.86-24.18 130.63-25.61 132.02-26.64L132.02-26.64Q134.93-28.81 139.47-28.81L139.47-28.81Q141.66-28.81 142.48-28.61 143.3-28.42 143.79-28.25L143.79-28.25Q144.45-28 145.4-28 146.35-28 146.73-28.42 147.11-28.83 147.11-29.19 147.11-29.54 147.04-29.74L147.04-29.74Q147.18-29.79 147.48-29.79 147.77-29.79 148.15-29.61 148.53-29.44 148.82-29.15L148.82-29.15Q149.4-28.49 149.4-27.75 149.4-27 149.11-26.61L149.11-26.61Q149.79-25.98 149.79-24.8 149.79-23.63 148.82-22.83L148.82-22.83Q149.04-22.39 149.04-21.75 149.04-21.12 148.35-20.53 147.67-19.95 147.06-19.95L147.06-19.95Q146.01-19.95 145.64-20.21L145.64-20.21Q145.96-21 145.96-21.91 145.96-22.83 145.47-23.66 144.99-24.49 144.23-25L144.23-25Q142.81-25.98 140.86-25.98L140.86-25.98Q138.39-25.98 137.54-24.41L137.54-24.41Q137.27-23.93 137.27-23.35 137.27-22.78 137.43-22.3 137.59-21.83 137.95-21.34L137.95-21.34Q138.66-20.39 139.96-19.53L139.96-19.53Q141.64-18.43 142.3-18.43L142.3-18.43Q143.72-18.43 144.77-19.12L144.77-19.12Q144.47-17.94 144.47-17.48L144.47-17.48Q144.47-16.77 145.6-15.84L145.6-15.84Q148.74-13.67 149.89-11.87L149.89-11.87Q150.99-10.11 150.99-7.96 150.99-5.81 150.04-4.28 149.09-2.76 147.45-1.66L147.45-1.66Q144.06 0.61 139.22 0.61L139.22 0.61Q135.93 0.61 133.24-0.59ZM132.39-22.95L132.39-22.95Q131.68-22.61 131.68-21.06 131.68-19.51 132.68-18.1 133.68-16.7 135.85-14.94L135.85-14.94Q136.37-14.55 136.37-14.18L136.37-14.18Q136.37-13.62 136.27-13.28L136.27-13.28Q136.56-13.35 137.29-13.43L137.29-13.43Q139.08-13.6 141.71-11.77L141.71-11.77Q145.91-9.18 145.91-6.32L145.91-6.32Q145.91-5.25 145.62-4.71L145.62-4.71Q146.5-4.88 146.96-6.2L146.96-6.2Q147.08-6.59 147.08-7.01L147.08-7.01Q147.08-8.98 144.95-11.02 142.81-13.06 138.81-14.97L138.81-14.97Q132.17-18.33 132.39-22.95ZM177.09 0.49L177.09 0.49Q173.64 0.49 173.38-4.27L173.38-4.27Q172.13-2.03 170.02-0.71 167.91 0.61 165.48 0.61 163.05 0.61 161.54-0.05 160.02-0.71 159.02-1.95L159.02-1.95Q157.07-4.39 157.07-8.89L157.07-8.89 157.07-10.4Q157.07-13.23 154.09-14.6L154.09-14.6Q155.85-15.45 156.34-16.04L156.34-16.04Q157.07-16.94 157.07-18.07L157.07-18.07 157.07-21.36Q157.07-23.44 155.65-23.61L155.65-23.61Q155.24-23.66 154.6-23.66 153.97-23.66 153.43-23.24L153.43-23.24Q153.09-23.71 153.09-24.21 153.09-24.71 153.34-25.33 153.6-25.95 154.14-26.51L154.14-26.51Q155.41-27.83 157.09-27.83 158.78-27.83 160.27-27.27L160.27-27.27Q161.34-28.81 162.8-28.81L162.8-28.81Q165.32-28.81 165.32-26.17L165.32-26.17 165.32-10.28Q165.32-5.64 167.47-4.71L167.47-4.71Q168.15-4.42 168.99-4.42 169.84-4.42 170.52-4.77 171.2-5.13 171.72-5.74L171.72-5.74Q172.67-6.93 172.94-9.01L172.94-9.01 172.94-21.36Q172.94-24.15 170.67-24.15L170.67-24.15Q169.84-24.15 169.3-23.73L169.3-23.73Q168.96-24.19 168.96-24.69 168.96-25.2 169.21-25.74 169.47-26.29 170.01-26.76L170.01-26.76Q171.2-27.83 172.92-27.83 174.65-27.83 176.13-27.27L176.13-27.27Q177.21-28.81 178.67-28.81L178.67-28.81Q181.19-28.81 181.19-26.17L181.19-26.17 181.19-18.07Q181.19-16.94 181.63-16.41L181.63-16.41Q182.41-15.45 184.17-14.6L184.17-14.6Q181.19-13.23 181.19-10.4L181.19-10.4 181.19-4.1Q181.65-2.22 183.22-2.22L183.22-2.22Q184.05-2.22 184.58-2.64L184.58-2.64Q184.92-2.17 184.92-1.48 184.92-0.78 184.23-0.15 183.53 0.49 182.06 0.49 180.58 0.49 179.26-0.29L179.26-0.29Q178.28 0.49 177.09 0.49ZM175.26-22.73L175.26-6.47Q176.67-7.03 176.75-11.87L176.75-11.87Q176.75-12.89 176.75-14.21 176.75-15.53 176.73-16.47 176.72-17.41 176.7-18.26L176.7-18.26Q176.6-21.34 176.13-21.94 175.67-22.53 175.26-22.73L175.26-22.73ZM160.73-11.38L160.66-14.6 160.73-17.82Q160.73-20 160.58-20.7L160.58-20.7Q160.17-22.56 159.41-22.73L159.41-22.73 159.41-21.14Q159.41-17.02 159.23-16.3 159.05-15.58 158.64-15.22 158.24-14.87 157.46-14.6L157.46-14.6Q158.92-14.09 159.12-13.35L159.12-13.35Q159.41-12.18 159.41-8.06L159.41-8.06 159.41-6.47Q160.14-6.64 160.61-8.64L160.61-8.64Q160.73-9.2 160.73-11.38L160.73-11.38ZM192.64 11.65L192.64 11.65Q191.54 12.45 190.1 12.45 188.66 12.45 187.96 11.82 187.27 11.18 187.27 10.6L187.27 10.6Q187.27 9.79 187.61 9.33L187.61 9.33Q188.14 9.74 188.97 9.74L188.97 9.74Q190.39 9.74 191 8.11L191 8.11 191-11.13Q191-12.26 190.54-12.79L190.54-12.79Q189.8-13.7 188.02-14.58L188.02-14.58Q191-15.94 191-18.8L191-18.8 191-21.36Q191-23.44 189.58-23.61L189.58-23.61Q189.17-23.66 188.53-23.66 187.9-23.66 187.36-23.24L187.36-23.24Q187.02-23.71 187.02-24.21 187.02-24.71 187.28-25.33 187.53-25.95 188.05-26.51L188.05-26.51Q189.34-27.83 191.04-27.83 192.73-27.83 193.86-27.29L193.86-27.29Q195.2-28.81 196.74-28.81L196.74-28.81Q199.25-28.81 199.25-26.17L199.25-26.17 199.25-26Q201.18-27.93 204.28-28.61L204.28-28.61Q205.23-28.81 206.74-28.81 208.24-28.81 209.9-28.37 211.56-27.93 212.78-26.81L212.78-26.81Q215.22-24.56 215.78-18.8L215.78-18.8Q216.03-15.82 218.76-14.58L218.76-14.58Q217.03-13.72 216.56-13.13L216.56-13.13Q215.95-12.3 215.78-11.13L215.78-11.13Q215.07-5.25 212.75-2.44L212.75-2.44Q210.21 0.61 205.4 0.61L205.4 0.61Q201.69 0.61 199.25-1.34L199.25-1.34 199.25 8.06Q199.86 9.74 201.28 9.74L201.28 9.74Q202.11 9.74 202.65 9.33L202.65 9.33Q202.99 9.79 202.99 10.49 202.99 11.18 202.29 11.82 201.6 12.45 200.18 12.45 198.76 12.45 197.62 11.65L197.62 11.65Q196.64 12.45 195.19 12.45 193.74 12.45 192.64 11.65ZM199.23-19.02L199.23-7.74Q199.23-5.76 200.55-4.35L200.55-4.35Q201.84-2.95 203.45-2.95L203.45-2.95Q207.53-2.95 207.53-8.81L207.53-8.81 207.53-19.51Q207.53-22.19 206.58-23.72 205.62-25.24 203.89-25.24L203.89-25.24Q200.79-25.24 199.62-21.83L199.62-21.83Q199.23-20.65 199.23-19.02L199.23-19.02ZM209.87-22.73L209.87-6.47Q211.09-6.93 211.24-9.67L211.24-9.67Q211.36-12.4 211.36-13.73 211.36-15.06 211.35-15.95 211.34-16.85 211.31-17.8L211.31-17.8Q211.22-21.36 210.75-21.95 210.29-22.53 209.87-22.73L209.87-22.73ZM193.3-7.35L193.3 0.63Q194.44-0.15 194.59-2.64L194.59-2.64Q194.64-4.05 194.66-5.91L194.66-5.91Q194.71-10.08 194.72-11.22 194.74-12.35 194.74-13.16L194.74-13.16 194.74-15.09Q194.74-15.48 194.72-16.05 194.71-16.63 194.7-17.3 194.69-17.97 194.64-18.6L194.64-18.6Q194.52-21.02 194.11-21.74 193.71-22.46 193.3-22.73L193.3-22.73 193.3-21.26Q193.3-17.02 193.11-16.3 192.93-15.58 192.53-15.21 192.12-14.84 191.34-14.58L191.34-14.58Q192.81-14.06 193-13.35L193-13.35Q193.3-12.28 193.3-7.35L193.3-7.35ZM240.48-0.95L240.48-0.95Q238.53 1 236.77 1L236.77 1Q235.65 1 235.26 0.17L235.26 0.17Q235.82-0.51 235.82-1.88L235.82-1.88 235.82-2.25Q235.82-2.39 235.8-2.51L235.8-2.51Q234.57-3.61 234.57-5.11 234.57-6.62 235.99-8.18L235.99-8.18Q235.58-9.01 235.58-9.95 235.58-10.89 235.86-11.71 236.14-12.52 236.63-13.13L236.63-13.13Q237.65-14.48 238.64-14.48 239.63-14.48 240.04-13.7L240.04-13.7Q239.16-12.77 239.16-10.79 239.16-8.81 239.74-7.35 240.31-5.88 241.36-4.83L241.36-4.83Q243.61-2.54 247.1-2.54L247.1-2.54Q249.44-2.54 251.08-3.88L251.08-3.88Q252.84-5.32 252.84-7.81L252.84-7.81Q252.84-9.57 252.01-10.67L252.01-10.67Q250.71-12.38 247.95-14.28L247.95-14.28Q245.83-15.77 244.56-15.77L244.56-15.77Q243.27-15.77 241.7-14.72L241.7-14.72Q242.12-15.97 242.12-17.04L242.12-17.04Q242.12-17.29 241.65-17.68L241.65-17.68 240.75-18.48Q236.48-22.41 235.7-25.78L235.7-25.78Q235.43-26.95 235.43-28.72 235.43-30.49 236.3-32.31 237.16-34.13 238.68-35.4L238.68-35.4Q241.83-38.09 246.68-38.09L246.68-38.09Q249.64-38.09 252.1-37.13L252.1-37.13Q253.15-36.72 254.5-36.72L254.5-36.72Q255.06-36.72 255.51-36.78 255.96-36.84 256.3-37.28L256.3-37.28Q256.62-37.74 256.62-38.11 256.62-38.48 256.52-38.72L256.52-38.72Q256.69-38.79 257-38.79 257.3-38.79 257.67-38.59 258.04-38.38 258.33-38.01L258.33-38.01Q258.99-37.18 258.99-36.15 258.99-35.11 258.4-34.57L258.4-34.57Q259.23-33.84 259.23-32.3L259.23-32.3Q259.23-30.79 258.21-29.76L258.21-29.76Q258.4-29.1 258.4-28.58 258.4-28.05 258.22-27.58 258.04-27.1 257.72-26.76L257.72-26.76Q257.01-26 256.38-26L256.38-26Q255.38-26 254.69-26.34L254.69-26.34Q255.11-27.32 255.11-28.44 255.11-29.57 254.61-30.75 254.11-31.93 253.2-32.81L253.2-32.81Q251.3-34.62 248.22-34.62L248.22-34.62Q246.27-34.62 245.02-33.42L245.02-33.42Q243.85-32.3 243.85-30.71L243.85-30.71Q243.85-29.52 244.44-28.71L244.44-28.71Q245.46-27.32 247.69-25.83L247.69-25.83 248.86-25.05Q249.83-24.44 250.18-24.44 250.52-24.44 250.86-24.51 251.2-24.58 251.62-24.71L251.62-24.71Q252.49-25 253.32-25.54L253.32-25.54 253.01-24.17Q252.86-23.49 252.86-23.17L252.86-23.17Q252.86-22.66 253.37-22.24L253.37-22.24Q257.94-18.29 259.48-15.63L259.48-15.63Q260.82-13.31 260.82-10.62 260.82-7.93 259.94-6.01 259.06-4.08 257.38-2.59L257.38-2.59Q253.67 0.73 247.73 0.73L247.73 0.73Q243.56 0.73 240.48-0.95ZM238.82-30.52L238.82-30.52Q237.9-30.13 237.9-28.49L237.9-28.49Q237.9-25.15 242.36-21.14L242.36-21.14 243.83-19.82Q244.58-19.14 244.5-18.77 244.41-18.41 244.35-18.19 244.29-17.97 244.22-17.77 244.15-17.58 244.12-17.48L244.12-17.48Q244.98-17.99 245.51-17.99L245.51-17.99Q246.59-17.99 247.54-17.41L247.54-17.41Q252.25-14.48 253.94-12.18L253.94-12.18Q255.16-10.5 255.2-7.98L255.2-7.98Q255.2-7.08 255.08-6.47L255.08-6.47Q256.38-7.3 256.38-9.11L256.38-9.11Q256.38-10.86 255.9-11.82 255.42-12.77 254.79-13.51 254.15-14.26 253.14-15.14 252.13-16.02 250.64-17.04L250.64-17.04 247.17-19.41Q242.9-22.22 240.68-25.34L240.68-25.34Q238.73-28.1 238.82-30.52ZM269.51-0.29L269.51-0.29Q268.39 0.49 266.96 0.49 265.53 0.49 264.83-0.15 264.14-0.78 264.14-1.37L264.14-1.37Q264.14-2.17 264.48-2.64L264.48-2.64Q265.02-2.22 265.85-2.22L265.85-2.22Q267.26-2.22 267.87-3.86L267.87-3.86 267.87-11.38Q267.87-12.6 267.41-13.04L267.41-13.04Q266.85-13.62 264.89-14.58L264.89-14.58Q266.6-15.36 267.07-15.82L267.07-15.82Q267.87-16.63 267.87-17.8L267.87-17.8 267.87-31.62Q267.87-34.4 265.6-34.4L265.6-34.4Q264.77-34.4 264.24-33.98L264.24-33.98Q263.89-34.45 263.89-34.95 263.89-35.45 264.15-35.91 264.41-36.38 264.92-36.77L264.92-36.77Q266.09-37.6 267.85-37.6 269.61-37.6 270.58-37.38L270.58-37.38Q271.93-39.06 273.61-39.06L273.61-39.06Q276.12-39.06 276.12-36.43L276.12-36.43 276.12-24.39Q278.49-28.81 283.86-28.81L283.86-28.81Q290.02-28.81 291.7-23.36L291.7-23.36Q292.24-21.63 292.24-19.43L292.24-19.43 292.24-17.8Q292.24-16.65 292.75-16.14L292.75-16.14Q293.51-15.38 295.22-14.6L295.22-14.6Q293.36-13.7 292.92-13.21L292.92-13.21Q292.24-12.45 292.24-11.38L292.24-11.38 292.24-3.74Q292.7-2.22 294.26-2.22L294.26-2.22Q295.09-2.22 295.63-2.64L295.63-2.64Q295.9-2.27 295.9-1.56 295.9-0.85 295.25-0.18 294.61 0.49 293.19 0.49 291.77 0.49 290.58-0.29L290.58-0.29Q289.48 0.49 288.1 0.49 286.72 0.49 285.7-0.24L285.7-0.24Q284.74 0.49 283.56 0.49 282.37 0.49 281.67-0.12 280.96-0.73 280.96-1.88L280.96-1.88Q280.96-2.42 281.33-2.73L281.33-2.73Q281.89-2.29 282.45-2.29L282.45-2.29Q283.52-2.29 283.99-3.49L283.99-3.49 283.99-18.04Q283.99-22.8 281.67-23.54L281.67-23.54Q280.93-23.78 280.08-23.78L280.08-23.78Q277.54-23.78 276.54-21.09L276.54-21.09Q276.22-20.26 276.12-19.29L276.12-19.29 276.12-3.49Q276.59-2.29 277.66-2.29L277.66-2.29Q278.22-2.29 278.79-2.73L278.79-2.73Q279.15-2.42 279.15-1.57 279.15-0.73 278.44-0.12 277.74 0.49 276.54 0.49 275.34 0.49 274.39-0.24L274.39-0.24Q273.39 0.49 272.02 0.49 270.66 0.49 269.51-0.29ZM270.17-8.08L270.17-6.49Q271.27-7.2 271.46-9.59L271.46-9.59Q271.54-10.64 271.56-11.94 271.58-13.23 271.6-13.78 271.61-14.33 271.61-14.6L271.61-14.6 271.61-16.8Q271.61-17.7 271.61-18.85L271.61-18.85 271.56-21.24Q271.51-27.71 271.34-28.44L271.34-28.44Q271-29.98 270.17-30.52L270.17-30.52 270.17-22.29Q270.17-17.24 270.06-16.66 269.95-16.09 269.87-15.82L269.87-15.82Q269.66-15.06 268.21-14.58L268.21-14.58Q269.68-14.06 269.87-13.35L269.87-13.35Q270.17-12.18 270.17-8.08L270.17-8.08ZM286.31-15.26L286.31-6.47Q287.53-6.93 287.67-9.67L287.67-9.67Q287.79-12.4 287.79-14.69 287.79-16.97 287.65-18.41 287.5-19.85 287.17-20.69 286.84-21.53 286.33-21.96 285.82-22.39 285.08-22.75L285.08-22.75Q286.01-20.56 286.16-18.75 286.31-16.94 286.31-15.26L286.31-15.26ZM305.64-32.3L305.64-32.3Q304.39-32.3 303.23-32.96 302.07-33.62 301.46-34.72L301.46-34.72Q300.81-35.84 299.71-36.43L299.71-36.43Q299.36-36.6 298.93-36.79L298.93-36.79 299.76-37.3Q300.93-38.04 301.49-39.09 302.05-40.14 303.19-40.73 304.32-41.33 305.64-41.33L305.64-41.33Q308.37-41.33 309.59-39.04L309.59-39.04Q310.42-37.52 312.16-36.79L312.16-36.79Q311.79-36.57 311.44-36.4 311.08-36.23 310.77-36.01L310.77-36.01Q310.06-35.52 309.51-34.57 308.96-33.62 307.92-32.96 306.88-32.3 305.64-32.3ZM304.35-35.29Q304.2-35.55 304.11-35.9 304.03-36.25 304.03-37.16 304.03-38.06 304.96-39.45L304.96-39.45Q304.05-39.45 303.69-39.12 303.32-38.79 303.14-38.56 302.95-38.33 302.82-38.1 302.68-37.87 302.49-37.6L302.49-37.6Q302.03-36.94 301.73-36.79L301.73-36.79Q302.12-36.57 302.45-36.1 302.78-35.62 303.22-35.11L303.22-35.11Q303.88-34.3 304.96-34.3L304.96-34.3Q304.81-34.57 304.65-34.8 304.49-35.03 304.35-35.29ZM303.2-0.29L303.2-0.29Q302.07 0.49 300.65 0.49 299.22 0.49 298.52-0.15 297.83-0.78 297.83-1.37L297.83-1.37Q297.83-2.17 298.17-2.64L298.17-2.64Q298.71-2.22 299.76-2.22 300.81-2.22 301.56-3.59L301.56-3.59 301.56-11.38Q301.56-12.45 301.12-12.94L301.12-12.94Q300.41-13.67 298.58-14.58L298.58-14.58Q300.29-15.36 300.76-15.82L300.76-15.82Q301.56-16.63 301.56-17.8L301.56-17.8 301.56-21.36Q301.56-23.44 300.15-23.61L300.15-23.61Q299.73-23.66 299.1-23.66 298.46-23.66 297.92-23.24L297.92-23.24Q297.58-23.71 297.58-24.21 297.58-24.71 297.84-25.33 298.1-25.95 298.63-26.51L298.63-26.51Q299.9-27.83 301.56-27.83 303.22-27.83 304.56-27.25L304.56-27.25Q305.76-28.81 307.3-28.81L307.3-28.81Q309.81-28.81 309.81-26.17L309.81-26.17 309.81-17.8Q309.81-16.63 310.33-16.11L310.33-16.11Q311.08-15.36 312.79-14.58L312.79-14.58Q310.96-13.67 310.5-13.21L310.5-13.21Q309.81-12.45 309.81-11.38L309.81-11.38 309.81-3.52Q310.62-2.22 311.64-2.22 312.67-2.22 313.21-2.64L313.21-2.64Q313.55-2.17 313.55-1.48 313.55-0.78 312.85-0.15 312.16 0.49 310.77 0.49 309.37 0.49 308.18-0.29L308.18-0.29Q307.18 0.49 305.76 0.49 304.35 0.49 303.2-0.29ZM305.31-11.87Q305.32-12.7 305.33-13.26 305.35-13.82 305.35-14.16L305.35-14.16 305.35-14.82Q305.35-15.19 305.33-15.77 305.32-16.36 305.31-17.07 305.3-17.77 305.27-18.46L305.27-18.46Q305.18-20.14 305.03-20.78L305.03-20.78Q304.74-22.19 303.91-22.73L303.91-22.73 303.91-21.14Q303.91-17.02 303.72-16.3 303.54-15.58 303.14-15.22 302.73-14.87 301.95-14.6L301.95-14.6Q303.42-14.09 303.61-13.35L303.61-13.35Q303.91-12.18 303.91-8.06L303.91-8.06 303.91-6.47Q305.03-7.2 305.18-9.47L305.18-9.47Q305.3-11.04 305.31-11.87ZM320.7 11.65L320.7 11.65Q319.6 12.45 318.16 12.45 316.72 12.45 316.02 11.82 315.33 11.18 315.33 10.6L315.33 10.6Q315.33 9.79 315.67 9.33L315.67 9.33Q316.21 9.74 317.04 9.74L317.04 9.74Q318.45 9.74 319.06 8.11L319.06 8.11 319.06-11.13Q319.06-12.26 318.6-12.79L318.6-12.79Q317.87-13.7 316.09-14.58L316.09-14.58Q319.06-15.94 319.06-18.8L319.06-18.8 319.06-21.36Q319.06-23.44 317.65-23.61L317.65-23.61Q317.23-23.66 316.6-23.66 315.96-23.66 315.43-23.24L315.43-23.24Q315.08-23.71 315.08-24.21 315.08-24.71 315.34-25.33 315.6-25.95 316.11-26.51L316.11-26.51Q317.4-27.83 319.1-27.83 320.8-27.83 321.92-27.29L321.92-27.29Q323.26-28.81 324.8-28.81L324.8-28.81Q327.32-28.81 327.32-26.17L327.32-26.17 327.32-26Q329.24-27.93 332.35-28.61L332.35-28.61Q333.3-28.81 334.8-28.81 336.3-28.81 337.96-28.37 339.62-27.93 340.84-26.81L340.84-26.81Q343.28-24.56 343.84-18.8L343.84-18.8Q344.09-15.82 346.82-14.58L346.82-14.58Q345.09-13.72 344.63-13.13L344.63-13.13Q344.02-12.3 343.84-11.13L343.84-11.13Q343.14-5.25 340.82-2.44L340.82-2.44Q338.28 0.61 333.47 0.61L333.47 0.61Q329.76 0.61 327.32-1.34L327.32-1.34 327.32 8.06Q327.93 9.74 329.34 9.74L329.34 9.74Q330.17 9.74 330.71 9.33L330.71 9.33Q331.05 9.79 331.05 10.49 331.05 11.18 330.36 11.82 329.66 12.45 328.24 12.45 326.83 12.45 325.68 11.65L325.68 11.65Q324.7 12.45 323.25 12.45 321.8 12.45 320.7 11.65ZM327.29-19.02L327.29-7.74Q327.29-5.76 328.61-4.35L328.61-4.35Q329.9-2.95 331.52-2.95L331.52-2.95Q335.59-2.95 335.59-8.81L335.59-8.81 335.59-19.51Q335.59-22.19 334.64-23.72 333.69-25.24 331.95-25.24L331.95-25.24Q328.85-25.24 327.68-21.83L327.68-21.83Q327.29-20.65 327.29-19.02L327.29-19.02ZM337.94-22.73L337.94-6.47Q339.16-6.93 339.3-9.67L339.3-9.67Q339.43-12.4 339.43-13.73 339.43-15.06 339.41-15.95 339.4-16.85 339.38-17.8L339.38-17.8Q339.28-21.36 338.82-21.95 338.35-22.53 337.94-22.73L337.94-22.73ZM321.36-7.35L321.36 0.63Q322.51-0.15 322.65-2.64L322.65-2.64Q322.7-4.05 322.73-5.91L322.73-5.91Q322.78-10.08 322.79-11.22 322.8-12.35 322.8-13.16L322.8-13.16 322.8-15.09Q322.8-15.48 322.79-16.05 322.78-16.63 322.76-17.3 322.75-17.97 322.7-18.6L322.7-18.6Q322.58-21.02 322.18-21.74 321.77-22.46 321.36-22.73L321.36-22.73 321.36-21.26Q321.36-17.02 321.18-16.3 320.99-15.58 320.59-15.21 320.19-14.84 319.41-14.58L319.41-14.58Q320.87-14.06 321.07-13.35L321.07-13.35Q321.36-12.28 321.36-7.35L321.36-7.35ZM354.49 11.65L354.49 11.65Q353.39 12.45 351.95 12.45 350.51 12.45 349.81 11.82 349.12 11.18 349.12 10.6L349.12 10.6Q349.12 9.79 349.46 9.33L349.46 9.33Q349.99 9.74 350.82 9.74L350.82 9.74Q352.24 9.74 352.85 8.11L352.85 8.11 352.85-11.13Q352.85-12.26 352.39-12.79L352.39-12.79Q351.65-13.7 349.87-14.58L349.87-14.58Q352.85-15.94 352.85-18.8L352.85-18.8 352.85-21.36Q352.85-23.44 351.43-23.61L351.43-23.61Q351.02-23.66 350.39-23.66 349.75-23.66 349.21-23.24L349.21-23.24Q348.87-23.71 348.87-24.21 348.87-24.71 349.13-25.33 349.38-25.95 349.9-26.51L349.9-26.51Q351.19-27.83 352.89-27.83 354.58-27.83 355.71-27.29L355.71-27.29Q357.05-28.81 358.59-28.81L358.59-28.81Q361.1-28.81 361.1-26.17L361.1-26.17 361.1-26Q363.03-27.93 366.13-28.61L366.13-28.61Q367.08-28.81 368.59-28.81 370.09-28.81 371.75-28.37 373.41-27.93 374.63-26.81L374.63-26.81Q377.07-24.56 377.63-18.8L377.63-18.8Q377.88-15.82 380.61-14.58L380.61-14.58Q378.88-13.72 378.41-13.13L378.41-13.13Q377.8-12.3 377.63-11.13L377.63-11.13Q376.92-5.25 374.6-2.44L374.6-2.44Q372.06 0.61 367.26 0.61L367.26 0.61Q363.54 0.61 361.1-1.34L361.1-1.34 361.1 8.06Q361.71 9.74 363.13 9.74L363.13 9.74Q363.96 9.74 364.5 9.33L364.5 9.33Q364.84 9.79 364.84 10.49 364.84 11.18 364.14 11.82 363.45 12.45 362.03 12.45 360.61 12.45 359.47 11.65L359.47 11.65Q358.49 12.45 357.04 12.45 355.59 12.45 354.49 11.65ZM361.08-19.02L361.08-7.74Q361.08-5.76 362.4-4.35L362.4-4.35Q363.69-2.95 365.3-2.95L365.3-2.95Q369.38-2.95 369.38-8.81L369.38-8.81 369.38-19.51Q369.38-22.19 368.43-23.72 367.47-25.24 365.74-25.24L365.74-25.24Q362.64-25.24 361.47-21.83L361.47-21.83Q361.08-20.65 361.08-19.02L361.08-19.02ZM371.72-22.73L371.72-6.47Q372.94-6.93 373.09-9.67L373.09-9.67Q373.21-12.4 373.21-13.73 373.21-15.06 373.2-15.95 373.19-16.85 373.16-17.8L373.16-17.8Q373.07-21.36 372.6-21.95 372.14-22.53 371.72-22.73L371.72-22.73ZM355.15-7.35L355.15 0.63Q356.29-0.15 356.44-2.64L356.44-2.64Q356.49-4.05 356.51-5.91L356.51-5.91Q356.56-10.08 356.57-11.22 356.59-12.35 356.59-13.16L356.59-13.16 356.59-15.09Q356.59-15.48 356.57-16.05 356.56-16.63 356.55-17.3 356.54-17.97 356.49-18.6L356.49-18.6Q356.37-21.02 355.96-21.74 355.56-22.46 355.15-22.73L355.15-22.73 355.15-21.26Q355.15-17.02 354.96-16.3 354.78-15.58 354.38-15.21 353.97-14.84 353.19-14.58L353.19-14.58Q354.66-14.06 354.85-13.35L354.85-13.35Q355.15-12.28 355.15-7.35L355.15-7.35ZM390.69-32.3L390.69-32.3Q389.45-32.3 388.29-32.96 387.13-33.62 386.52-34.72L386.52-34.72Q385.86-35.84 384.76-36.43L384.76-36.43Q384.42-36.6 383.98-36.79L383.98-36.79 384.81-37.3Q385.98-38.04 386.54-39.09 387.1-40.14 388.24-40.73 389.37-41.33 390.69-41.33L390.69-41.33Q393.42-41.33 394.65-39.04L394.65-39.04Q395.48-37.52 397.21-36.79L397.21-36.79Q396.84-36.57 396.49-36.4 396.13-36.23 395.82-36.01L395.82-36.01Q395.11-35.52 394.56-34.57 394.01-33.62 392.97-32.96 391.94-32.3 390.69-32.3ZM389.4-35.29Q389.25-35.55 389.16-35.9 389.08-36.25 389.08-37.16 389.08-38.06 390.01-39.45L390.01-39.45Q389.1-39.45 388.74-39.12 388.37-38.79 388.19-38.56 388-38.33 387.87-38.1 387.74-37.87 387.54-37.6L387.54-37.6Q387.08-36.94 386.78-36.79L386.78-36.79Q387.17-36.57 387.5-36.1 387.83-35.62 388.27-35.11L388.27-35.11Q388.93-34.3 390.01-34.3L390.01-34.3Q389.86-34.57 389.7-34.8 389.54-35.03 389.4-35.29ZM388.25-0.29L388.25-0.29Q387.13 0.49 385.7 0.49 384.27 0.49 383.57-0.15 382.88-0.78 382.88-1.37L382.88-1.37Q382.88-2.17 383.22-2.64L383.22-2.64Q383.76-2.22 384.81-2.22 385.86-2.22 386.61-3.59L386.61-3.59 386.61-11.38Q386.61-12.45 386.17-12.94L386.17-12.94Q385.47-13.67 383.63-14.58L383.63-14.58Q385.34-15.36 385.81-15.82L385.81-15.82Q386.61-16.63 386.61-17.8L386.61-17.8 386.61-21.36Q386.61-23.44 385.2-23.61L385.2-23.61Q384.78-23.66 384.15-23.66 383.51-23.66 382.98-23.24L382.98-23.24Q382.63-23.71 382.63-24.21 382.63-24.71 382.89-25.33 383.15-25.95 383.68-26.51L383.68-26.51Q384.95-27.83 386.61-27.83 388.27-27.83 389.62-27.25L389.62-27.25Q390.81-28.81 392.35-28.81L392.35-28.81Q394.86-28.81 394.86-26.17L394.86-26.17 394.86-17.8Q394.86-16.63 395.38-16.11L395.38-16.11Q396.13-15.36 397.84-14.58L397.84-14.58Q396.01-13.67 395.55-13.21L395.55-13.21Q394.86-12.45 394.86-11.38L394.86-11.38 394.86-3.52Q395.67-2.22 396.7-2.22 397.72-2.22 398.26-2.64L398.26-2.64Q398.6-2.17 398.6-1.48 398.6-0.78 397.9-0.15 397.21 0.49 395.82 0.49 394.43 0.49 393.23-0.29L393.23-0.29Q392.23 0.49 390.81 0.49 389.4 0.49 388.25-0.29ZM390.36-11.87Q390.37-12.7 390.38-13.26 390.4-13.82 390.4-14.16L390.4-14.16 390.4-14.82Q390.4-15.19 390.38-15.77 390.37-16.36 390.36-17.07 390.35-17.77 390.32-18.46L390.32-18.46Q390.23-20.14 390.08-20.78L390.08-20.78Q389.79-22.19 388.96-22.73L388.96-22.73 388.96-21.14Q388.96-17.02 388.77-16.3 388.59-15.58 388.19-15.22 387.78-14.87 387-14.6L387-14.6Q388.47-14.09 388.66-13.35L388.66-13.35Q388.96-12.18 388.96-8.06L388.96-8.06 388.96-6.47Q390.08-7.2 390.23-9.47L390.23-9.47Q390.35-11.04 390.36-11.87ZM405.8-0.29L405.8-0.29Q404.68 0.49 403.24 0.49 401.8 0.49 401.15-0.18 400.5-0.85 400.5-1.46L400.5-1.46Q400.5-2.27 400.77-2.64L400.77-2.64Q401.31-2.22 402.14-2.22L402.14-2.22Q403.7-2.22 404.16-3.74L404.16-3.74 404.16-11.33Q404.16-12.4 403.7-12.89L403.7-12.89Q402.99-13.7 401.19-14.58L401.19-14.58Q402.89-15.36 403.36-15.82L403.36-15.82Q404.16-16.63 404.16-17.8L404.16-17.8 404.16-21.36Q404.16-23.44 402.75-23.61L402.75-23.61Q402.33-23.66 401.7-23.66 401.06-23.66 400.53-23.24L400.53-23.24Q400.18-23.71 400.18-24.21 400.18-24.71 400.44-25.33 400.7-25.95 401.21-26.51L401.21-26.51Q402.5-27.83 404.2-27.83 405.9-27.83 407.02-27.29L407.02-27.29Q408.36-28.81 409.76-28.81 411.15-28.81 411.68-28.16 412.22-27.51 412.22-26.17L412.22-26.17 412.22-23.88Q413.49-26.15 415.69-27.48 417.88-28.81 420.35-28.81 422.82-28.81 424.32-28.16 425.82-27.51 426.8-26.32L426.8-26.32Q428.7-23.95 428.7-19.43L428.7-19.43 428.7-17.82Q428.7-16.65 429.21-16.14L429.21-16.14Q429.97-15.36 431.68-14.58L431.68-14.58Q429.85-13.67 429.38-13.21L429.38-13.21Q428.7-12.45 428.7-11.38L428.7-11.38 428.7-3.74Q429.16-2.22 430.73-2.22L430.73-2.22Q431.56-2.22 432.09-2.64L432.09-2.64Q432.36-2.27 432.36-1.56 432.36-0.85 431.72-0.18 431.07 0.49 429.73 0.49 428.38 0.49 427.28-0.27L427.28-0.27Q426.31 0.49 425 0.49 423.7 0.49 422.67-0.24L422.67-0.24Q421.6 0.49 420.38 0.49 419.15 0.49 418.45-0.12 417.74-0.73 417.74-1.88L417.74-1.88Q417.74-2.42 418.1-2.73L418.1-2.73Q418.67-2.29 419.23-2.29L419.23-2.29Q420.3-2.29 420.77-3.49L420.77-3.49 420.77-18.04Q420.77-22.78 418.45-23.54L418.45-23.54Q417.69-23.78 416.81-23.78 415.93-23.78 415.17-23.43 414.42-23.07 413.81-22.44L413.81-22.44Q412.47-21.02 412.22-19.07L412.22-19.07 412.22-3.49Q412.68-2.29 413.76-2.29L413.76-2.29Q414.32-2.29 414.88-2.73L414.88-2.73Q415.25-2.42 415.25-1.57 415.25-0.73 414.54-0.12 413.83 0.49 412.67 0.49 411.51 0.49 410.56-0.24L410.56-0.24Q409.63 0.49 408.29 0.49 406.95 0.49 405.8-0.29ZM423.11-15.77L423.11-6.47Q424.33-6.93 424.45-9.67L424.45-9.67Q424.6-12.4 424.6-14.82 424.6-17.24 424.4-18.81 424.21-20.39 423.84-21.28 423.48-22.17 422.98-22.57 422.47-22.97 421.89-23.27L421.89-23.27Q422.82-21.07 422.96-19.26 423.11-17.46 423.11-15.77L423.11-15.77ZM407.91-11.87Q407.92-12.67 407.94-13.22 407.95-13.77 407.95-14.11 407.95-14.45 407.95-14.81 407.95-15.16 407.94-15.75 407.92-16.33 407.91-17.04 407.9-17.75 407.85-18.43L407.85-18.43Q407.78-20.12 407.63-20.75L407.63-20.75Q407.34-22.17 406.51-22.71L406.51-22.71 406.51-21.12Q406.51-17.02 406.32-16.3 406.14-15.58 405.74-15.21 405.34-14.84 404.55-14.58L404.55-14.58Q406.02-14.06 406.22-13.35L406.22-13.35Q406.51-12.18 406.51-8.08L406.51-8.08 406.51-6.49Q407.63-7.23 407.8-9.47L407.8-9.47Q407.9-11.06 407.91-11.87ZM438.1 0.95L438.1 0.95Q436.34-0.66 436.34-3.05L436.34-3.05Q436.34-6.62 440.56-8.91L440.56-8.91Q437.8-10.84 436.53-15.01L436.53-15.01Q436.12-16.31 435.7-16.77L435.7-16.77Q435.09-17.5 433.61-18.24L433.61-18.24Q434.83-18.8 435.47-19.68 436.12-20.56 436.6-21.97 437.07-23.39 437.94-24.68 438.81-25.98 440.17-26.95L440.17-26.95Q443.18-29.05 447.91-29.05L447.91-29.05Q449.43-29.05 451.06-28.74L451.06-28.74Q451.4-31.4 453.43-33.25L453.43-33.25Q455.43-35.13 458.12-35.13L458.12-35.13Q461.27-35.13 463.41-33.5L463.41-33.5Q464.59-32.62 465.76-32.84L465.76-32.84Q465.86-30.88 464.24-30.32L464.24-30.32Q463.98-27.03 461.39-27.03L461.39-27.03Q460.36-27.03 460.14-27.17L460.14-27.17Q460.51-27.49 460.51-27.99 460.51-28.49 460.09-28.86L460.09-28.86Q459.58-27.91 457.8-27.91L457.8-27.91Q456.82-27.91 456.26-28.83L456.26-28.83Q457.19-29.13 457.73-29.72 458.26-30.32 458.26-30.83L458.26-30.83Q458.26-32.18 456.85-32.18L456.85-32.18Q454.11-32.18 453.65-27.93L453.65-27.93Q458.09-26.03 459.31-21.95L459.31-21.95Q460.12-19.19 462.29-18.24L462.29-18.24Q460.39-17.29 459.78-16.11L459.78-16.11Q459.53-15.65 459.34-15.01L459.34-15.01Q458.02-10.86 455.21-8.9 452.4-6.93 447.98-6.93L447.98-6.93Q445.18-6.93 443.1-7.62L443.1-7.62Q442.3-7.1 442.3-6.48 442.3-5.86 442.54-5.43 442.78-5 443.42-4.66L443.42-4.66Q444.66-4 448.16-3.49L448.16-3.49Q449.74-3.17 451.43-5.54L451.43-5.54Q451.53-4.3 451.99-3.67 452.45-3.05 453.01-2.98L453.01-2.98Q459.75-1.98 461.73 1.42L461.73 1.42Q462.41 2.56 462.41 4.36 462.41 6.15 461.27 7.85 460.12 9.55 458.17 10.74L458.17 10.74Q454.11 13.18 448.2 13.18L448.2 13.18Q441.27 13.18 437.61 10.91L437.61 10.91Q434.46 8.94 434.46 5.86L434.46 5.86Q434.46 3.81 436.53 1.98L436.53 1.98Q437.22 1.39 438.1 0.95ZM445.62-11.38Q446.15-10.62 446.69-10.41 447.23-10.21 447.95-10.21 448.67-10.21 449.21-10.41 449.74-10.62 450.11-11.13L450.11-11.13Q450.82-12.13 450.82-14.5L450.82-14.5 450.82-21.26Q450.82-23.63 450.28-24.39 449.74-25.15 449.21-25.35 448.67-25.56 447.95-25.56 447.23-25.56 446.69-25.35 446.15-25.15 445.81-24.66L445.81-24.66Q445.08-23.63 445.08-21.26L445.08-21.26 445.08-14.5Q445.08-12.13 445.62-11.38ZM453.19-24.71L453.19-11.55Q454.31-11.94 454.48-13.96L454.48-13.96Q454.65-15.87 454.65-18.24L454.65-18.24Q454.65-21.9 454.45-22.92L454.45-22.92Q454.16-24.29 453.19-24.71L453.19-24.71ZM440.47-11.55L440.47-11.55Q440.95-11.91 440.95-12.4L440.95-12.4Q440.95-13.04 440.78-13.62L440.78-13.62Q440.12-15.87 440.12-18.24L440.12-18.24Q440.12-20.58 440.78-22.83L440.78-22.83Q440.95-23.41 440.95-23.75L440.95-23.75 440.95-24.34Q440.95-24.56 440.76-24.71L440.76-24.71Q439.76-23.49 439.31-21.92 438.85-20.36 438.59-19.17L438.59-19.17Q438.49-18.8 437.22-18.24L437.22-18.24Q438.51-17.6 438.59-17.29L438.59-17.29 439.07-15.23Q439.71-12.65 440.47-11.55ZM439.22-2.86L439.22-2.86Q439-2.64 439-2.22L439-2.22Q439.1 0.42 446.52 1.76L446.52 1.76Q447.37 1.95 447.74 3.61L447.74 3.61Q447.86 3.08 448.71 2.72 449.55 2.37 449.84 2.39L449.84 2.39Q453.53 2.83 454.82 3.22L454.82 3.22Q457.12 3.93 458.17 5.32L458.17 5.32Q458.46 4.98 458.46 4.44 458.46 3.91 457.92 3.36 457.38 2.81 456.16 2.39L456.16 2.39Q454.06 1.64 450.48 1.22 446.89 0.81 445.43 0.49 443.98 0.17 442.76-0.29L442.76-0.29Q440.1-1.34 439.22-2.86ZM440.54 2.51L440.54 2.51Q438.81 3.27 438.81 5.35L438.81 5.35Q438.81 7.01 441.32 8.35L441.32 8.35Q444.13 9.86 448.57 9.86L448.57 9.86Q454.04 9.86 455.68 7.98L455.68 7.98Q456.14 7.47 456.14 6.9 456.14 6.32 455.59 5.88 455.04 5.44 454.16 5.18L454.16 5.18Q452.87 4.74 450.08 4.42L450.08 4.42Q448.74 4.27 446.76 6.4L446.76 6.4Q446.76 5.03 446.31 4.42 445.86 3.81 445.42 3.76L445.42 3.76Q442.59 3.39 440.54 2.51Z" opacity="1" transform="matrix(1,0,0,1,0,0)" fill="#ee3e38" class="slogan-text-1" data-fill-palette-color="secondary" id="text-1"></path></svg></g></svg></g></svg></g></svg></g><g><svg viewBox="0 0 147.1450719095165 147.14505996666847" height="147.14505996666847" width="147.1450719095165"><g><svg xmlns="http://www.w3.org/2000/svg" xmlns:xlink="http://www.w3.org/1999/xlink" version="1.1" x="0" y="0" viewBox="0.5 0.4999997615814209 47.000003814697266 47" enable-background="new 0 0 48 48" xml:space="preserve" height="147.14505996666847" width="147.1450719095165" class="icon-icon-0" data-fill-palette-color="accent" id="icon-0"><g fill="#ee3e38" data-fill-palette-color="accent"><path d="M42.9 11.4l-4.1-9.7c-0.3-0.7-1-1.2-1.8-1.2H11c-0.8 0-1.5 0.5-1.8 1.2l-4.1 9.7H42.9z" fill="#ee3e38" data-fill-palette-color="accent"></path><g fill="#ee3e38" data-fill-palette-color="accent"><rect x="18.7" y="15.3" width="10.8" height="32.2" fill="#ee3e38" data-fill-palette-color="accent"></rect><path d="M45.5 43.6h-2V15.3H33.4v32.2h8.2 3.9c1.1 0 2-0.9 2-2S46.6 43.6 45.5 43.6z" fill="#ee3e38" data-fill-palette-color="accent"></path><path d="M14.8 15.3H4.6v28.2H2.5c-1.1 0-2 0.9-2 2s0.9 2 2 2h4.1 8.2V15.3z" fill="#ee3e38" data-fill-palette-color="accent"></path></g></g></svg></g></svg></g></svg></g><defs></defs></svg><rect width="395.52" height="100.56987615162127" fill="none" stroke="none" visibility="hidden"></rect></g></svg></g></svg>